<mxfile host="app.diagrams.net" agent="Mozilla/5.0 (Windows NT 10.0; Win64; x64) AppleWebKit/537.36 (KHTML, like Gecko) Chrome/131.0.0.0 Safari/537.36" version="24.8.6">
  <diagram name="หน้า-1" id="eeTtMp_d8oq3VS9b_Aru">
    <mxGraphModel dx="1050" dy="530" grid="1" gridSize="10" guides="1" tooltips="1" connect="1" arrows="1" fold="1" page="1" pageScale="1" pageWidth="827" pageHeight="1169" math="0" shadow="0">
      <root>
        <mxCell id="0" />
        <mxCell id="1" parent="0" />
        <mxCell id="31xEvmHdF9ZcXDO0a7rq-12" style="edgeStyle=orthogonalEdgeStyle;rounded=0;orthogonalLoop=1;jettySize=auto;html=1;exitX=0.5;exitY=1;exitDx=0;exitDy=0;entryX=0.5;entryY=0;entryDx=0;entryDy=0;" edge="1" parent="1" source="31xEvmHdF9ZcXDO0a7rq-1" target="31xEvmHdF9ZcXDO0a7rq-2">
          <mxGeometry relative="1" as="geometry" />
        </mxCell>
        <mxCell id="31xEvmHdF9ZcXDO0a7rq-1" value="start" style="ellipse;whiteSpace=wrap;html=1;" vertex="1" parent="1">
          <mxGeometry x="354" y="10" width="120" height="40" as="geometry" />
        </mxCell>
        <mxCell id="31xEvmHdF9ZcXDO0a7rq-13" style="edgeStyle=orthogonalEdgeStyle;rounded=0;orthogonalLoop=1;jettySize=auto;html=1;exitX=0.5;exitY=1;exitDx=0;exitDy=0;entryX=0.5;entryY=0;entryDx=0;entryDy=0;" edge="1" parent="1" source="31xEvmHdF9ZcXDO0a7rq-2" target="31xEvmHdF9ZcXDO0a7rq-3">
          <mxGeometry relative="1" as="geometry" />
        </mxCell>
        <mxCell id="31xEvmHdF9ZcXDO0a7rq-2" value="input Matrix1" style="shape=parallelogram;perimeter=parallelogramPerimeter;whiteSpace=wrap;html=1;fixedSize=1;" vertex="1" parent="1">
          <mxGeometry x="361" y="70" width="106" height="30" as="geometry" />
        </mxCell>
        <mxCell id="31xEvmHdF9ZcXDO0a7rq-14" style="edgeStyle=orthogonalEdgeStyle;rounded=0;orthogonalLoop=1;jettySize=auto;html=1;exitX=0.5;exitY=1;exitDx=0;exitDy=0;entryX=0.5;entryY=0;entryDx=0;entryDy=0;" edge="1" parent="1" source="31xEvmHdF9ZcXDO0a7rq-3" target="31xEvmHdF9ZcXDO0a7rq-6">
          <mxGeometry relative="1" as="geometry" />
        </mxCell>
        <mxCell id="31xEvmHdF9ZcXDO0a7rq-3" value="input Matrix 2" style="shape=parallelogram;perimeter=parallelogramPerimeter;whiteSpace=wrap;html=1;fixedSize=1;" vertex="1" parent="1">
          <mxGeometry x="361" y="120" width="106" height="30" as="geometry" />
        </mxCell>
        <mxCell id="31xEvmHdF9ZcXDO0a7rq-17" value="false" style="edgeStyle=orthogonalEdgeStyle;rounded=0;orthogonalLoop=1;jettySize=auto;html=1;exitX=1;exitY=0.5;exitDx=0;exitDy=0;entryX=0;entryY=0.5;entryDx=0;entryDy=0;" edge="1" parent="1" source="31xEvmHdF9ZcXDO0a7rq-5" target="31xEvmHdF9ZcXDO0a7rq-7">
          <mxGeometry relative="1" as="geometry" />
        </mxCell>
        <mxCell id="31xEvmHdF9ZcXDO0a7rq-18" value="true" style="edgeStyle=orthogonalEdgeStyle;rounded=0;orthogonalLoop=1;jettySize=auto;html=1;exitX=0;exitY=0.5;exitDx=0;exitDy=0;entryX=1;entryY=0.5;entryDx=0;entryDy=0;" edge="1" parent="1" source="31xEvmHdF9ZcXDO0a7rq-5" target="31xEvmHdF9ZcXDO0a7rq-9">
          <mxGeometry relative="1" as="geometry" />
        </mxCell>
        <mxCell id="31xEvmHdF9ZcXDO0a7rq-5" value="Matrix1 can Multiply by Matrix2" style="rhombus;whiteSpace=wrap;html=1;" vertex="1" parent="1">
          <mxGeometry x="311" y="290" width="206" height="60" as="geometry" />
        </mxCell>
        <mxCell id="31xEvmHdF9ZcXDO0a7rq-15" style="edgeStyle=orthogonalEdgeStyle;rounded=0;orthogonalLoop=1;jettySize=auto;html=1;exitX=0.5;exitY=1;exitDx=0;exitDy=0;entryX=0.5;entryY=0;entryDx=0;entryDy=0;" edge="1" parent="1" source="31xEvmHdF9ZcXDO0a7rq-6" target="31xEvmHdF9ZcXDO0a7rq-8">
          <mxGeometry relative="1" as="geometry" />
        </mxCell>
        <mxCell id="31xEvmHdF9ZcXDO0a7rq-6" value="find transpose of Matrix1" style="rounded=0;whiteSpace=wrap;html=1;" vertex="1" parent="1">
          <mxGeometry x="359" y="170" width="110" height="40" as="geometry" />
        </mxCell>
        <mxCell id="31xEvmHdF9ZcXDO0a7rq-21" style="edgeStyle=orthogonalEdgeStyle;rounded=0;orthogonalLoop=1;jettySize=auto;html=1;exitX=0.5;exitY=1;exitDx=0;exitDy=0;entryX=1;entryY=0.5;entryDx=0;entryDy=0;" edge="1" parent="1" source="31xEvmHdF9ZcXDO0a7rq-7" target="31xEvmHdF9ZcXDO0a7rq-11">
          <mxGeometry relative="1" as="geometry" />
        </mxCell>
        <mxCell id="31xEvmHdF9ZcXDO0a7rq-7" value="Matrix1 and Matrix2 cannot multiply" style="shape=parallelogram;perimeter=parallelogramPerimeter;whiteSpace=wrap;html=1;fixedSize=1;" vertex="1" parent="1">
          <mxGeometry x="560" y="300" width="140" height="40" as="geometry" />
        </mxCell>
        <mxCell id="31xEvmHdF9ZcXDO0a7rq-16" style="edgeStyle=orthogonalEdgeStyle;rounded=0;orthogonalLoop=1;jettySize=auto;html=1;exitX=0.5;exitY=1;exitDx=0;exitDy=0;entryX=0.5;entryY=0;entryDx=0;entryDy=0;" edge="1" parent="1" source="31xEvmHdF9ZcXDO0a7rq-8" target="31xEvmHdF9ZcXDO0a7rq-5">
          <mxGeometry relative="1" as="geometry">
            <mxPoint x="414" y="280" as="targetPoint" />
          </mxGeometry>
        </mxCell>
        <mxCell id="31xEvmHdF9ZcXDO0a7rq-8" value="output transpose of Matrix1" style="shape=parallelogram;perimeter=parallelogramPerimeter;whiteSpace=wrap;html=1;fixedSize=1;" vertex="1" parent="1">
          <mxGeometry x="349" y="230" width="130" height="40" as="geometry" />
        </mxCell>
        <mxCell id="31xEvmHdF9ZcXDO0a7rq-19" style="edgeStyle=orthogonalEdgeStyle;rounded=0;orthogonalLoop=1;jettySize=auto;html=1;exitX=0.5;exitY=1;exitDx=0;exitDy=0;entryX=0.5;entryY=0;entryDx=0;entryDy=0;" edge="1" parent="1" source="31xEvmHdF9ZcXDO0a7rq-9" target="31xEvmHdF9ZcXDO0a7rq-10">
          <mxGeometry relative="1" as="geometry" />
        </mxCell>
        <mxCell id="31xEvmHdF9ZcXDO0a7rq-9" value="Matrix1 x Matrix2" style="rounded=0;whiteSpace=wrap;html=1;" vertex="1" parent="1">
          <mxGeometry x="160" y="305" width="110" height="30" as="geometry" />
        </mxCell>
        <mxCell id="31xEvmHdF9ZcXDO0a7rq-20" style="edgeStyle=orthogonalEdgeStyle;rounded=0;orthogonalLoop=1;jettySize=auto;html=1;exitX=0.5;exitY=1;exitDx=0;exitDy=0;entryX=0;entryY=0.5;entryDx=0;entryDy=0;" edge="1" parent="1" source="31xEvmHdF9ZcXDO0a7rq-10" target="31xEvmHdF9ZcXDO0a7rq-11">
          <mxGeometry relative="1" as="geometry" />
        </mxCell>
        <mxCell id="31xEvmHdF9ZcXDO0a7rq-10" value="output result" style="shape=parallelogram;perimeter=parallelogramPerimeter;whiteSpace=wrap;html=1;fixedSize=1;" vertex="1" parent="1">
          <mxGeometry x="162.5" y="360" width="105" height="30" as="geometry" />
        </mxCell>
        <mxCell id="31xEvmHdF9ZcXDO0a7rq-23" style="edgeStyle=orthogonalEdgeStyle;rounded=0;orthogonalLoop=1;jettySize=auto;html=1;exitX=0.5;exitY=1;exitDx=0;exitDy=0;entryX=0.5;entryY=0;entryDx=0;entryDy=0;" edge="1" parent="1" source="31xEvmHdF9ZcXDO0a7rq-11" target="31xEvmHdF9ZcXDO0a7rq-22">
          <mxGeometry relative="1" as="geometry" />
        </mxCell>
        <mxCell id="31xEvmHdF9ZcXDO0a7rq-11" value="" style="ellipse;whiteSpace=wrap;html=1;aspect=fixed;" vertex="1" parent="1">
          <mxGeometry x="409" y="410" width="10" height="10" as="geometry" />
        </mxCell>
        <mxCell id="31xEvmHdF9ZcXDO0a7rq-22" value="end" style="ellipse;whiteSpace=wrap;html=1;" vertex="1" parent="1">
          <mxGeometry x="354" y="440" width="120" height="40" as="geometry" />
        </mxCell>
      </root>
    </mxGraphModel>
  </diagram>
</mxfile>
